inDegrees=yes
name=ik_S50_A07_T01
DataType=double
version=3
OpenSimVersion=4.3-2021-08-27-4bc7ad9
endheader
time	pelvis_tilt	pelvis_list	pelvis_rotation	pelvis_tx	pelvis_ty	pelvis_tz	hip_flexion_r	hip_adduction_r	hip_rotation_r	knee_angle_r	knee_angle_r_beta	ankle_angle_r	subtalar_angle_r	mtp_angle_r	hip_flexion_l	hip_adduction_l	hip_rotation_l	knee_angle_l	knee_angle_l_beta	ankle_angle_l	subtalar_angle_l	mtp_angle_l	lumbar_extension	lumbar_bending	lumbar_rotation	arm_flex_r	arm_add_r	arm_rot_r	elbow_flex_r	pro_sup_r	wrist_flex_r	wrist_dev_r	arm_flex_l	arm_add_l	arm_rot_l	elbow_flex_l	pro_sup_l	wrist_flex_l	wrist_dev_l
0	0	0	0	0	0.9399999999999999	0	0	0	0	0	0	0	0	0	0	0	0	0	0	0	0	0	0	0	0	0	0	0	0	89.99999999963507	0	0	0	0	0	0	89.99999999869995	0	0
0.02	-7.922147891135394	-1.021417589892016	27.7425252013145	0	0.9399999999999999	0	3.219962462795686	-1.520334645917685	-1.085500173357688	4.979573385136127	0.08690995091530507	0	0	0	3.219962462795686	-1.520334645917685	-1.085500173357688	4.979573385136127	0.08690995091530507	0	0	0	-3.761940592233964	-4.260262960358527	5.402257375130584	12.44079314892778	-8.345469481796625	-2.907301490476754	61.41941993130967	113.810075527615	0	0	15.10182706102557	-8.581233634989703	-8.200037762014436	62.80964172586217	123.7440104165459	0	0
0.04	-6.971752030424371	-1.859872300437682	28.56934116815751	0	0.9399999999999999	0	42.75897181558727	-10.58954395882911	-10.44956677261435	55.92313387634483	0.9760428141757967	0	0	0	42.75897181558727	-10.58954395882911	-10.44956677261435	55.92313387634483	0.9760428141757967	0	0	0	-4.256313748687343	-3.022933780177865	4.680486928186452	12.44669395286041	-8.350938490369488	-2.894234573743566	61.42206038160529	113.8003597467448	0	0	15.10118457720691	-8.579732346252564	-8.206076562625487	62.80999336679707	123.7628983519946	0	0
0.06	-6.969274405836383	-1.862579683291509	28.58270679249244	0	0.9399999999999999	0	42.76265374580122	-10.58570656615776	-10.44779474325753	55.92214253985325	0.9760255120900234	0	0	0	42.76265374580122	-10.58570656615776	-10.44779474325753	55.92214253985325	0.9760255120900234	0	0	0	-4.258373729181152	-3.021715739941841	4.68057970725414	12.43142416856554	-8.352642530170623	-2.882104341656248	61.44150407017599	113.7689806544771	0	0	15.10287289980529	-8.579032926298552	-8.188251397711866	62.81880698655205	123.724077702292	0	0
0.08	-6.97324142017785	-1.866900154684719	28.58927640977101	0	0.9399999999999999	0	42.76466362300514	-10.58326877771455	-10.44673529043763	55.92161612684688	0.976016324449837	0	0	0	42.76466362300514	-10.58326877771455	-10.44673529043763	55.92161612684688	0.976016324449837	0	0	0	-4.265511595954846	-3.021009275679242	4.680726488579645	12.44666712203736	-8.368220810063827	-2.890904317078752	61.4543725881144	113.7581930871694	0	0	15.10973634387483	-8.599476799350549	-8.183145316644124	62.82527618436023	123.7140172768628	0	0
0.1	-6.967596018539356	-1.874234875668413	28.58819540301572	0	0.9399999999999999	0	42.76655608992322	-10.58189789079111	-10.44598353656622	55.92107766001973	0.9760069264307903	0	0	0	42.76655608992322	-10.58189789079111	-10.44598353656622	55.92107766001973	0.9760069264307903	0	0	0	-4.265729036619646	-3.027484886411799	4.680515598537178	12.4339132577661	-8.350004645648726	-2.900639279983026	61.45706265134923	113.7532509881842	0	0	15.1095988544772	-8.582420003959315	-8.16955418816146	62.82641958469444	123.7110919248279	0	0
0.12	-6.956924217605951	-1.872549608599347	28.61339549717632	0	0.9399999999999999	0	42.7751409620216	-10.58059596352934	-10.44395021149979	55.9183577574855	0.9759594551762347	0	0	0	42.7751409620216	-10.58059596352934	-10.44395021149979	55.9183577574855	0.9759594551762347	0	0	0	-4.264758772852288	-3.015983554665028	4.6773421991801	12.41792945387376	-8.362504969543343	-2.920432375655887	61.45609613473184	113.7686267182697	0	0	15.09373673256746	-8.569332916159414	-8.135811650507783	62.82388509408605	123.7202361804184	0	0
0.14	-6.954969809417384	-1.87459094543007	28.61269552181705	0	0.9399999999999999	0	42.7783240062915	-10.57759735378285	-10.44250754613276	55.91748387380323	0.9759442030286999	0	0	0	42.7783240062915	-10.57759735378285	-10.44250754613276	55.91748387380323	0.9759442030286999	0	0	0	-4.266695132949141	-3.014302760699841	4.67587400494234	12.41844309606921	-8.361036212999622	-2.918600480131299	61.44849433838014	113.7766576263228	0	0	15.09493574248747	-8.573850530381106	-8.121475813894596	62.81664724825229	123.7138714022172	0	0
0.16	-6.950307624261832	-1.875610232252439	28.61716018323192	0	0.9399999999999999	0	42.78310855025136	-10.57358626597415	-10.44046701137933	55.91614702853003	0.9759208706770928	0	0	0	42.78310855025136	-10.57358626597415	-10.44046701137933	55.91614702853003	0.9759208706770928	0	0	0	-4.267293126515863	-3.010306410822138	4.670395264525665	12.41774613356151	-8.351403129294656	-2.904278845696507	61.46035827000006	113.7528479636368	0	0	15.0937034555588	-8.571606723648141	-8.121124659367943	62.82625021140534	123.6843688672735	0	0
0.18	-6.942530390803737	-1.88345313297699	28.63007359138467	0	0.9399999999999999	0	42.78743467670541	-10.569296049896	-10.4384442559293	55.91497202966221	0.975900363078142	0	0	0	42.78743467670541	-10.569296049896	-10.4384442559293	55.91497202966221	0.975900363078142	0	0	0	-4.267782900583953	-3.014976894090056	4.667012866227338	12.41298862466653	-8.350715691041135	-2.882845388007732	61.48124794720011	113.7305350191577	0	0	15.10644914813471	-8.570928999027185	-8.145444474366494	62.83645870664037	123.680040036548	0	0
0.2	-6.938528305933161	-1.881176015292594	28.63525274083268	0	0.9399999999999999	0	42.78812772866009	-10.56841054503143	-10.43807409981973	55.91479087237439	0.9758972012870055	0	0	0	42.78812772866009	-10.56841054503143	-10.43807409981973	55.91479087237439	0.9758972012870055	0	0	0	-4.263840559705991	-3.013656644425163	4.662805710021499	12.40785134733883	-8.354394797193711	-2.870242853398554	61.46278904449991	113.7514485550725	0	0	15.11452672388998	-8.571815623199505	-8.164944882445869	62.81003027177621	123.7395091803132	0	0
0.22	-6.930770372661609	-1.883636965580775	28.63416798652081	0	0.9399999999999999	0	42.79081155134242	-10.56624735766214	-10.43695974108134	55.91403292307356	0.9758839725761428	0	0	0	42.79081155134242	-10.56624735766214	-10.43695974108134	55.91403292307356	0.9758839725761428	0	0	0	-4.260299141168064	-3.016346777187823	4.667157409366474	12.42222600819271	-8.328185823358716	-2.89053511474368	61.46178634628707	113.7551784028235	0	0	15.08783049279686	-8.573383939883408	-8.153559189189792	62.80425874538844	123.7361163714971	0	0
